{
  "accessors": [
    {
      "bufferView": 2,
      "componentType": 5126,
      "count": 2597,
      "max": [
        0.36082571744918823,
        0.6358802318572998,
        0.15441089868545532
      ],
      "min": [
        -0.4087204337120056,
        -0.10042634606361389,
        -0.30258992314338684
      ],
      "type": "VEC3"
    },
    {
      "bufferView": 2,
      "byteOffset": 31164,
      "componentType": 5126,
      "count": 2597,
      "max": [
        0.999803364276886,
        0.9992110133171082,
        0.9995625019073486
      ],
      "min": [
        -0.9994096755981445,
        -0.9979486465454102,
        -0.9999011158943176
      ],
      "type": "VEC3"
    },
    {
      "bufferView": 1,
      "componentType": 5126,
      "count": 2597,
      "max": [
        0.9949689507484436,
        0.8970445394515991
      ],
      "min": [
        0.005002507008612156,
        0.004998279269784689
      ],
      "type": "VEC2"
    },
    {
      "bufferView": 0,
      "componentType": 5125,
      "count": 10185,
      "type": "SCALAR"
    },
    {
      "bufferView": 2,
      "byteOffset": 62328,
      "componentType": 5126,
      "count": 250,
      "max": [
        0.10857753455638885,
        0.09597133845090866,
        0.07113942503929138
      ],
      "min": [
        -0.12903019785881042,
        -0.01204824261367321,
        -0.08065483719110489
      ],
      "type": "VEC3"
    },
    {
      "bufferView": 2,
      "byteOffset": 65328,
      "componentType": 5126,
      "count": 250,
      "max": [
        0.98964923620224,
        0.9942795634269714,
        0.995015561580658
      ],
      "min": [
        -0.98964923620224,
        -0.9942795634269714,
        -0.9950157403945923
      ],
      "type": "VEC3"
    },
    {
      "bufferView": 1,
      "byteOffset": 20776,
      "componentType": 5126,
      "count": 250,
      "max": [
        0.9932196736335754,
        0.4799857437610626
      ],
      "min": [
        0.6693191528320313,
        0.005004599690437317
      ],
      "type": "VEC2"
    },
    {
      "bufferView": 0,
      "byteOffset": 40740,
      "componentType": 5125,
      "count": 1152,
      "type": "SCALAR"
    },
    {
      "bufferView": 2,
      "byteOffset": 68328,
      "componentType": 5126,
      "count": 2292,
      "max": [
        0.3574270009994507,
        0.29580971598625183,
        0.31853047013282776
      ],
      "min": [
        -0.39188310503959656,
        -0.35753023624420166,
        -1.120664358139038
      ],
      "type": "VEC3"
    },
    {
      "bufferView": 2,
      "byteOffset": 95832,
      "componentType": 5126,
      "count": 2292,
      "max": [
        0.9991113543510437,
        0.9999045729637146,
        0.9955631494522095
      ],
      "min": [
        -0.9999188780784607,
        -0.9999040365219116,
        -0.9998490810394287
      ],
      "type": "VEC3"
    },
    {
      "bufferView": 1,
      "byteOffset": 22776,
      "componentType": 5126,
      "count": 2292,
      "max": [
        0.9943788051605225,
        0.8854866027832031
      ],
      "min": [
        0.00500035285949707,
        0.005113691091537476
      ],
      "type": "VEC2"
    },
    {
      "bufferView": 0,
      "byteOffset": 45348,
      "componentType": 5125,
      "count": 10464,
      "type": "SCALAR"
    },
    {
      "bufferView": 2,
      "byteOffset": 123336,
      "componentType": 5126,
      "count": 1436,
      "max": [
        0.8122889399528503,
        0.7735763788223267,
        0.4456464350223541
      ],
      "min": [
        -0.8538010120391846,
        -0.5020451545715332,
        -1.3970602750778198
      ],
      "type": "VEC3"
    },
    {
      "bufferView": 2,
      "byteOffset": 140568,
      "componentType": 5126,
      "count": 1436,
      "max": [
        0.9970836639404297,
        0.9974163174629211,
        0.9999991655349731
      ],
      "min": [
        -0.9994356632232666,
        -0.9978705644607544,
        -1.0
      ],
      "type": "VEC3"
    },
    {
      "bufferView": 1,
      "byteOffset": 41112,
      "componentType": 5126,
      "count": 1436,
      "max": [
        0.9911143779754639,
        0.991569995880127
      ],
      "min": [
        0.00500941276550293,
        0.005004279315471649
      ],
      "type": "VEC2"
    },
    {
      "bufferView": 0,
      "byteOffset": 87204,
      "componentType": 5125,
      "count": 6084,
      "type": "SCALAR"
    }
  ],
  "asset": {
    "extras": {
      "author": "Julien Kaspar (https://sketchfab.com/julienkaspart)",
      "license": "CC-BY-4.0 (http://creativecommons.org/licenses/by/4.0/)",
      "source": "https://sketchfab.com/3d-models/vivkanaut-f8f174b21138450cac834c4ccd528207",
      "title": "Vivkanaut"
    },
    "generator": "Sketchfab-15.19.0",
    "version": "2.0"
  },
  "bufferViews": [
    {
      "buffer": 0,
      "byteLength": 111540,
      "name": "floatBufferViews",
      "target": 34963
    },
    {
      "buffer": 0,
      "byteLength": 52600,
      "byteOffset": 111540,
      "byteStride": 8,
      "name": "floatBufferViews",
      "target": 34962
    },
    {
      "buffer": 0,
      "byteLength": 157800,
      "byteOffset": 164140,
      "byteStride": 12,
      "name": "floatBufferViews",
      "target": 34962
    }
  ],
  "buffers": [
    {
      "byteLength": 321940,
      "uri": "scene.bin"
    }
  ],
  "images": [
    {
      "uri": "textures/head.bake_baseColor.png"
    },
    {
      "uri": "textures/head.bake_emissive.png"
    },
    {
      "uri": "textures/body_baseColor.png"
    },
    {
      "uri": "textures/body_emissive.png"
    },
    {
      "uri": "textures/misc.bake_baseColor.png"
    },
    {
      "uri": "textures/misc.bake_emissive.png"
    }
  ],
  "materials": [
    {
      "doubleSided": true,
      "emissiveFactor": [
        1.0,
        1.0,
        1.0
      ],
      "emissiveTexture": {
        "index": 1
      },
      "name": "head.bake",
      "pbrMetallicRoughness": {
        "baseColorTexture": {
          "index": 0
        },
        "metallicFactor": 0.0,
        "roughnessFactor": 0.5
      }
    },
    {
      "doubleSided": true,
      "emissiveFactor": [
        1.0,
        1.0,
        1.0
      ],
      "emissiveTexture": {
        "index": 1
      },
      "name": "head.eyes.bake",
      "pbrMetallicRoughness": {
        "baseColorTexture": {
          "index": 0
        },
        "metallicFactor": 0.0,
        "roughnessFactor": 0.5
      }
    },
    {
      "doubleSided": true,
      "emissiveFactor": [
        1.0,
        1.0,
        1.0
      ],
      "emissiveTexture": {
        "index": 3
      },
      "name": "body",
      "pbrMetallicRoughness": {
        "baseColorTexture": {
          "index": 2
        },
        "metallicFactor": 0.0,
        "roughnessFactor": 0.5
      }
    },
    {
      "doubleSided": true,
      "emissiveFactor": [
        1.0,
        1.0,
        1.0
      ],
      "emissiveTexture": {
        "index": 5
      },
      "name": "misc.bake",
      "pbrMetallicRoughness": {
        "baseColorTexture": {
          "index": 4
        },
        "metallicFactor": 0.0,
        "roughnessFactor": 0.5
      }
    }
  ],
  "meshes": [
    {
      "name": "head.001_head.bake_0",
      "primitives": [
        {
          "attributes": {
            "NORMAL": 1,
            "POSITION": 0,
            "TEXCOORD_0": 2
          },
          "indices": 3,
          "material": 0,
          "mode": 4
        }
      ]
    },
    {
      "name": "head.001_head.eyes.bake_0",
      "primitives": [
        {
          "attributes": {
            "NORMAL": 5,
            "POSITION": 4,
            "TEXCOORD_0": 6
          },
          "indices": 7,
          "material": 1,
          "mode": 4
        }
      ]
    },
    {
      "name": "dress.001_body_0",
      "primitives": [
        {
          "attributes": {
            "NORMAL": 9,
            "POSITION": 8,
            "TEXCOORD_0": 10
          },
          "indices": 11,
          "material": 2,
          "mode": 4
        }
      ]
    },
    {
      "name": "ground.001_misc.bake_0",
      "primitives": [
        {
          "attributes": {
            "NORMAL": 13,
            "POSITION": 12,
            "TEXCOORD_0": 14
          },
          "indices": 15,
          "material": 3,
          "mode": 4
        }
      ]
    }
  ],
  "nodes": [
    {
      "children": [
        1
      ],
      "matrix": [
        1.0,
        0.0,
        0.0,
        0.0,
        0.0,
        2.220446049250313e-16,
        -1.0,
        0.0,
        0.0,
        1.0,
        2.220446049250313e-16,
        0.0,
        0.0,
        0.0,
        0.0,
        1.0
      ],
      "name": "Sketchfab_model"
    },
    {
      "children": [
        2
      ],
      "matrix": [
        0.009999999776482582,
        0.0,
        0.0,
        0.0,
        0.0,
        0.0,
        0.009999999776482582,
        0.0,
        0.0,
        -0.009999999776482582,
        0.0,
        0.0,
        0.0,
        0.0,
        0.0,
        1.0
      ],
      "name": "f3a121087f62412680ff50a7f18e15be.fbx"
    },
    {
      "children": [
        3,
        6,
        8
      ],
      "name": "RootNode"
    },
    {
      "children": [
        4,
        5
      ],
      "matrix": [
        97.53110343603824,
        -0.7087663421230579,
        -22.07218867310362,
        0.0,
        -12.377121960791785,
        81.02057751372148,
        -57.292869288513856,
        0.0,
        18.289087306820317,
        58.61026931874075,
        78.93253838480163,
        0.0,
        -5.247688293457031,
        152.32083129882813,
        2.123943328857422,
        1.0
      ],
      "name": "head.001"
    },
    {
      "mesh": 0,
      "name": "head.001_head.bake_0"
    },
    {
      "mesh": 1,
      "name": "head.001_head.eyes.bake_0"
    },
    {
      "children": [
        7
      ],
      "matrix": [
        100.0,
        0.0,
        0.0,
        0.0,
        0.0,
        -1.629206793918314e-05,
        -99.99999999999868,
        0.0,
        0.0,
        99.99999999999868,
        -1.629206793918314e-05,
        0.0,
        0.8640691637992859,
        113.95327758789063,
        1.360970377922058,
        1.0
      ],
      "name": "dress.001"
    },
    {
      "mesh": 2,
      "name": "dress.001_body_0"
    },
    {
      "children": [
        9
      ],
      "matrix": [
        100.0,
        0.0,
        0.0,
        0.0,
        0.0,
        -1.629206793918314e-05,
        -99.99999999999868,
        0.0,
        0.0,
        99.99999999999868,
        -1.629206793918314e-05,
        0.0,
        0.8640691637992859,
        113.95327758789063,
        1.360970377922058,
        1.0
      ],
      "name": "ground.001"
    },
    {
      "mesh": 3,
      "name": "ground.001_misc.bake_0"
    }
  ],
  "samplers": [
    {
      "magFilter": 9729,
      "minFilter": 9987,
      "wrapS": 10497,
      "wrapT": 10497
    }
  ],
  "scene": 0,
  "scenes": [
    {
      "name": "Sketchfab_Scene",
      "nodes": [
        0
      ]
    }
  ],
  "textures": [
    {
      "sampler": 0,
      "source": 0
    },
    {
      "sampler": 0,
      "source": 1
    },
    {
      "sampler": 0,
      "source": 2
    },
    {
      "sampler": 0,
      "source": 3
    },
    {
      "sampler": 0,
      "source": 4
    },
    {
      "sampler": 0,
      "source": 5
    }
  ]
}
